<svg width="23" height="43" viewBox="0 0 23 43" fill="none" xmlns="http://www.w3.org/2000/svg">
<path fill-rule="evenodd" clip-rule="evenodd" d="M23.0007 14.0072V19.0072H22.0007V29.6772C21.9825 30.8247 21.5284 31.9222 20.7307 32.7472C20.6907 32.7873 20.5307 33.0072 20.5307 33.0072C20.5307 33.0072 19.1207 35.1172 18.7907 35.6772C18.0931 36.87 18.0595 38.6481 18.0398 39.6901C18.0332 40.037 18.0282 40.3023 18.0007 40.4372C17.8648 41.0083 17.4141 41.4512 16.8407 41.5772C14.9963 41.9056 13.1237 42.0497 11.2507 42.0072C9.21857 42.0474 7.18695 41.9035 5.18074 41.5772C4.5878 41.4687 4.10319 41.0418 3.92074 40.4672C3.79702 39.8594 3.77746 39.2399 3.75779 38.6167C3.7409 38.0814 3.72391 37.5432 3.64074 37.0072C3.50242 35.3789 2.6859 33.8838 1.39074 32.8872C0.484871 32.0687 -0.0220928 30.8979 0.000739292 29.6772V12.3372C0.00788696 11.1375 0.498128 9.99117 1.36074 9.15725L1.82074 8.64725C2.91967 7.41492 3.58059 5.85401 3.70074 4.20725C3.74058 3.90047 3.77883 3.50639 3.8174 3.10912C3.87563 2.50925 3.93456 1.90211 4.00074 1.57725C4.12851 1.01961 4.55671 0.579841 5.11074 0.437248C6.9552 0.108847 8.82775 -0.0351958 10.7007 0.00724828C11.6807 0.00724828 12.7107 0.0272483 13.6507 0.0872483C14.5907 0.147248 15.5307 0.217248 16.4607 0.347248C17.2765 0.370788 17.9705 0.949073 18.1407 1.74725C18.2487 2.29173 18.2884 2.84283 18.328 3.3933C18.3728 4.01557 18.4175 4.63704 18.5607 5.24725C18.8232 6.31462 19.2662 7.32925 19.8707 8.24725C20.0747 8.56508 20.3417 8.86266 20.6087 9.16027C20.9046 9.49003 21.2005 9.81982 21.4107 10.1772C21.796 10.8319 21.9997 11.5776 22.0007 12.3372V14.0072H23.0007ZM18.0007 33.0072C19.7384 32.8947 21.0695 31.4172 21.0007 29.6772V12.3372C21.0695 10.5973 19.7384 9.11981 18.0007 9.00725H4.00074C2.26306 9.11981 0.932001 10.5973 1.00074 12.3372V29.6772C0.926599 31.4192 2.26056 32.8999 4.00074 33.0072H18.0007Z" fill="url(#paint0_linear)"/>
<defs>
<linearGradient id="paint0_linear" x1="11.3755" y1="90.6821" x2="64.8018" y2="58.731" gradientUnits="userSpaceOnUse">
<stop stop-color="#FF611F"/>
<stop offset="1" stop-color="#EDFF00"/>
</linearGradient>
</defs>
</svg>
