<svg width="48" height="45" viewBox="0 0 48 45" fill="none" xmlns="http://www.w3.org/2000/svg">
<path fill-rule="evenodd" clip-rule="evenodd" d="M33.1148 0.792244L41.7637 32.1366C45.2705 32.5517 47.9998 35.5412 48 39.1578C48 39.7539 47.5168 40.2372 46.9207 40.2372C46.7413 40.2372 46.5726 40.1927 46.4238 40.1155C45.9682 42.7374 43.678 44.7382 40.9278 44.7382C38.1774 44.7382 35.8867 42.7377 35.4311 40.1155C35.2823 40.1927 35.1136 40.2372 34.9344 40.2372H11.9077C11.7284 40.2372 11.5597 40.1927 11.4111 40.1155C10.9553 42.7372 8.66504 44.7379 5.91469 44.7379C2.83777 44.7379 0.334445 42.2347 0.334445 39.1578C0.334445 37.0363 1.52497 35.1876 3.27275 34.2441H1.07935C0.483241 34.2441 0 33.7609 0 33.1648C0 32.5687 0.483241 32.0854 1.07935 32.0854H5.91469C9.44757 32.0854 12.3837 34.6891 12.9047 38.0784H33.9371C34.3229 35.5693 36.0331 33.4921 38.3284 32.5818L33.0258 13.3647C32.8673 12.79 33.2046 12.1956 33.7792 12.0371C33.8425 12.0195 33.9058 12.0092 33.9689 12.0035L31.2525 2.1587H29.5855C28.9894 2.1587 28.5061 1.67546 28.5061 1.07935C28.5061 0.483241 28.9894 0 29.5855 0H32.0743C32.5597 0 32.9856 0.324268 33.1148 0.792244ZM2.49315 39.158C2.49315 41.0445 4.02799 42.5793 5.91469 42.5793C7.8014 42.5793 9.33624 41.0445 9.33624 39.158C9.33624 37.2714 7.80125 35.7366 5.91469 35.7366C4.02799 35.7366 2.49315 37.2714 2.49315 39.158ZM37.5059 39.158C37.5059 41.0447 39.0409 42.5797 40.9278 42.5797C42.8142 42.5797 44.3489 41.0447 44.349 39.158C44.349 37.2714 42.8142 35.7366 40.9278 35.7366C39.0409 35.7366 37.5059 37.2714 37.5059 39.158ZM5.9147 37.8105C5.17195 37.8105 4.56767 38.4148 4.56767 39.1576C4.56767 39.9003 5.17195 40.5046 5.9147 40.5046C6.6576 40.5046 7.26204 39.9003 7.26204 39.1576C7.26219 38.4148 6.65775 37.8105 5.9147 37.8105ZM40.9278 37.8105C40.1849 37.8105 39.5804 38.4148 39.5804 39.1576C39.5804 39.9005 40.1849 40.5049 40.9278 40.5049C41.6705 40.5049 42.2748 39.9005 42.2748 39.1576C42.2748 38.4148 41.6705 37.8105 40.9278 37.8105Z" fill="url(#paint0_linear)"/>
<defs>
<linearGradient id="paint0_linear" x1="20.0932" y1="81.341" x2="81.4025" y2="21.9301" gradientUnits="userSpaceOnUse">
<stop stop-color="#C8205D"/>
<stop offset="1" stop-color="#FFEA31"/>
</linearGradient>
</defs>
</svg>
