<svg width="20" height="20" viewBox="0 0 20 20" fill="none" xmlns="http://www.w3.org/2000/svg">
<g opacity="0.5">
<path d="M19.2381 16.3232C19.2381 17.9672 17.9054 19.2999 16.2613 19.2999C14.6173 19.2999 13.2846 17.9672 13.2846 16.3232C13.2846 14.6792 14.6173 13.3465 16.2613 13.3465C17.9054 13.3465 19.2381 14.6792 19.2381 16.3232Z" fill="white"/>
<path d="M13.1865 10.2097C13.1865 11.8537 11.8537 13.1865 10.2097 13.1865C8.56571 13.1865 7.23297 11.8537 7.23297 10.2097C7.23297 8.56573 8.56571 7.233 10.2097 7.233C11.8537 7.233 13.1865 8.56573 13.1865 10.2097Z" fill="white"/>
<path d="M3.59924 6.63777C5.24324 6.63777 6.57598 5.30504 6.57598 3.66103C6.57598 2.01703 5.24324 0.684292 3.59924 0.684292C1.95523 0.684293 0.622498 2.01703 0.622498 3.66103C0.622498 5.30504 1.95523 6.63777 3.59924 6.63777Z" fill="white"/>
<path d="M3.59927 19.2999C1.95527 19.2999 0.622531 17.9671 0.622531 16.3231C0.622531 14.6791 1.95527 13.3464 3.59927 13.3464C5.24328 13.3464 6.57601 14.6791 6.57601 16.3231C6.57601 17.9671 5.24328 19.2999 3.59927 19.2999Z" fill="white"/>
<path d="M13.2846 3.66101C13.2846 5.30501 14.6174 6.63775 16.2614 6.63775C17.9054 6.63775 19.2381 5.30501 19.2381 3.66101C19.2381 2.017 17.9054 0.684265 16.2614 0.684265C14.6174 0.684265 13.2846 2.017 13.2846 3.66101Z" fill="white"/>
</g>
</svg>
